<svg id="svg" version="1.1" xmlns="http://www.w3.org/2000/svg" xmlns:xlink="http://www.w3.org/1999/xlink" width="400" height="400" viewBox="0, 0, 400,400"><g id="svgg"><path id="path0" d="M57.200 196.800 C 57.200 197.020,56.221 197.200,55.024 197.200 C 53.827 197.200,52.736 197.380,52.600 197.600 C 52.464 197.820,51.823 198.000,51.176 198.000 C 50.529 198.000,50.000 198.180,50.000 198.400 C 50.000 198.620,49.280 198.800,48.400 198.800 C 47.520 198.800,46.800 198.980,46.800 199.200 C 46.800 199.420,46.260 199.600,45.600 199.600 C 44.940 199.600,44.400 199.780,44.400 200.000 C 44.400 200.220,44.040 200.400,43.600 200.400 C 43.160 200.400,42.800 200.580,42.800 200.800 C 42.800 201.020,42.260 201.200,41.600 201.200 C 40.940 201.200,40.400 201.380,40.400 201.600 C 40.400 201.820,40.040 202.000,39.600 202.000 C 39.160 202.000,38.800 202.180,38.800 202.400 C 38.800 202.620,38.440 202.800,38.000 202.800 C 37.560 202.800,37.200 202.980,37.200 203.200 C 37.200 203.420,36.840 203.600,36.400 203.600 C 35.960 203.600,35.600 203.780,35.600 204.000 C 35.600 204.220,35.280 204.400,34.888 204.400 C 34.497 204.400,33.917 204.760,33.600 205.200 C 33.283 205.640,32.703 206.000,32.312 206.000 C 31.920 206.000,31.600 206.180,31.600 206.400 C 31.600 206.620,31.312 206.800,30.960 206.800 C 30.609 206.800,29.817 207.340,29.200 208.000 C 28.583 208.660,27.880 209.200,27.636 209.200 C 27.392 209.200,26.628 209.740,25.937 210.400 C 25.246 211.060,24.526 211.600,24.336 211.600 C 23.824 211.600,14.800 220.718,14.800 221.235 C 14.800 221.479,14.260 222.183,13.600 222.800 C 12.940 223.417,12.400 224.169,12.400 224.472 C 12.400 224.775,12.040 225.283,11.600 225.600 C 11.160 225.917,10.800 226.457,10.800 226.800 C 10.800 227.143,10.440 227.683,10.000 228.000 C 9.560 228.317,9.200 228.814,9.200 229.105 C 9.200 229.396,8.840 230.020,8.400 230.492 C 7.960 230.964,7.600 231.587,7.600 231.875 C 7.600 232.164,7.420 232.400,7.200 232.400 C 6.980 232.400,6.800 232.653,6.800 232.962 C 6.800 233.447,6.248 234.720,4.750 237.695 C 4.557 238.077,4.400 238.662,4.400 238.995 C 4.400 239.328,4.220 239.600,4.000 239.600 C 3.780 239.600,3.600 240.140,3.600 240.800 C 3.600 241.460,3.420 242.000,3.200 242.000 C 2.980 242.000,2.800 242.540,2.800 243.200 C 2.800 243.860,2.620 244.400,2.400 244.400 C 2.180 244.400,2.000 245.120,2.000 246.000 C 2.000 246.880,1.820 247.600,1.600 247.600 C 1.380 247.600,1.200 248.104,1.200 248.720 C 1.200 249.336,0.975 250.065,0.700 250.340 C -0.026 251.066,-0.026 278.458,0.700 278.700 C 0.987 278.795,1.200 279.536,1.200 280.433 C 1.200 281.295,1.380 282.000,1.600 282.000 C 1.820 282.000,2.000 282.619,2.000 283.376 C 2.000 284.133,2.180 284.864,2.400 285.000 C 2.620 285.136,2.800 285.676,2.800 286.200 C 2.800 286.724,2.980 287.264,3.200 287.400 C 3.420 287.536,3.600 287.997,3.600 288.424 C 3.600 288.851,3.780 289.200,4.000 289.200 C 4.220 289.200,4.400 289.740,4.400 290.400 C 4.400 291.060,4.580 291.600,4.800 291.600 C 5.020 291.600,5.200 291.960,5.200 292.400 C 5.200 292.840,5.380 293.200,5.600 293.200 C 5.820 293.200,6.000 293.560,6.000 294.000 C 6.000 294.440,6.180 294.800,6.400 294.800 C 6.620 294.800,6.800 295.160,6.800 295.600 C 6.800 296.040,6.980 296.400,7.200 296.400 C 7.420 296.400,7.600 296.760,7.600 297.200 C 7.600 297.640,7.780 298.000,8.000 298.000 C 8.220 298.000,8.400 298.360,8.400 298.800 C 8.400 299.240,8.580 299.600,8.800 299.600 C 9.020 299.600,9.200 299.836,9.200 300.125 C 9.200 300.413,9.560 301.036,10.000 301.508 C 10.440 301.980,10.800 302.644,10.800 302.983 C 10.800 303.322,10.980 303.600,11.200 303.600 C 11.420 303.600,11.600 303.960,11.600 304.400 C 11.600 304.840,11.780 305.200,12.000 305.200 C 12.220 305.200,12.400 305.560,12.400 306.000 C 12.400 306.440,12.580 306.800,12.800 306.800 C 13.020 306.800,13.200 307.120,13.200 307.512 C 13.200 307.903,13.560 308.483,14.000 308.800 C 14.440 309.117,14.800 309.697,14.800 310.088 C 14.800 310.480,14.980 310.800,15.200 310.800 C 15.420 310.800,15.600 311.160,15.600 311.600 C 15.600 312.040,15.780 312.400,16.000 312.400 C 16.220 312.400,16.400 312.760,16.400 313.200 C 16.400 313.640,16.580 314.000,16.800 314.000 C 17.020 314.000,17.200 314.278,17.200 314.617 C 17.200 314.956,17.560 315.620,18.000 316.092 C 18.440 316.564,18.800 317.187,18.800 317.475 C 18.800 317.764,18.980 318.000,19.200 318.000 C 19.420 318.000,19.600 318.360,19.600 318.800 C 19.600 319.240,19.780 319.600,20.000 319.600 C 20.220 319.600,20.400 319.960,20.400 320.400 C 20.400 320.840,20.580 321.200,20.800 321.200 C 21.020 321.200,21.200 321.560,21.200 322.000 C 21.200 322.440,21.380 322.800,21.600 322.800 C 21.820 322.800,22.000 323.036,22.000 323.325 C 22.000 323.613,22.360 324.236,22.800 324.708 C 23.240 325.180,23.600 325.844,23.600 326.183 C 23.600 326.522,23.780 326.800,24.000 326.800 C 24.220 326.800,24.400 327.160,24.400 327.600 C 24.400 328.040,24.580 328.400,24.800 328.400 C 25.020 328.400,25.200 328.760,25.200 329.200 C 25.200 329.640,25.380 330.000,25.600 330.000 C 25.820 330.000,26.000 330.236,26.000 330.525 C 26.000 330.813,26.360 331.436,26.800 331.908 C 27.240 332.380,27.600 333.044,27.600 333.383 C 27.600 333.722,27.780 334.000,28.000 334.000 C 28.220 334.000,28.400 334.360,28.400 334.800 C 28.400 335.240,28.580 335.600,28.800 335.600 C 29.020 335.600,29.200 335.960,29.200 336.400 C 29.200 336.840,29.380 337.200,29.600 337.200 C 29.820 337.200,30.000 337.520,30.000 337.912 C 30.000 338.303,30.360 338.883,30.800 339.200 C 31.240 339.517,31.600 340.097,31.600 340.488 C 31.600 340.880,31.780 341.200,32.000 341.200 C 32.220 341.200,32.400 341.560,32.400 342.000 C 32.400 342.440,32.580 342.800,32.800 342.800 C 33.020 342.800,33.200 343.160,33.200 343.600 C 33.200 344.040,33.380 344.400,33.600 344.400 C 33.820 344.400,34.000 344.678,34.000 345.017 C 34.000 345.356,34.360 346.020,34.800 346.492 C 35.240 346.964,35.600 347.587,35.600 347.875 C 35.600 348.164,35.780 348.400,36.000 348.400 C 36.220 348.400,36.400 348.760,36.400 349.200 C 36.400 349.640,36.580 350.000,36.800 350.000 C 37.020 350.000,37.200 350.360,37.200 350.800 C 37.200 351.240,37.380 351.600,37.600 351.600 C 37.820 351.600,38.000 351.960,38.000 352.400 C 38.000 352.840,38.180 353.200,38.400 353.200 C 38.620 353.200,38.800 353.436,38.800 353.725 C 38.800 354.013,39.160 354.636,39.600 355.108 C 40.040 355.580,40.400 356.244,40.400 356.583 C 40.400 356.922,40.580 357.200,40.800 357.200 C 41.020 357.200,41.200 357.560,41.200 358.000 C 41.200 358.440,41.380 358.800,41.600 358.800 C 41.820 358.800,42.000 359.160,42.000 359.600 C 42.000 360.040,42.180 360.400,42.400 360.400 C 42.620 360.400,42.800 360.636,42.800 360.925 C 42.800 361.213,43.160 361.836,43.600 362.308 C 44.040 362.780,44.400 363.444,44.400 363.783 C 44.400 364.122,44.580 364.400,44.800 364.400 C 45.020 364.400,45.200 364.760,45.200 365.200 C 45.200 365.640,45.380 366.000,45.600 366.000 C 45.820 366.000,46.000 366.360,46.000 366.800 C 46.000 367.240,46.180 367.600,46.400 367.600 C 46.620 367.600,46.800 367.920,46.800 368.312 C 46.800 368.703,47.160 369.283,47.600 369.600 C 48.040 369.917,48.400 370.497,48.400 370.888 C 48.400 371.280,48.580 371.600,48.800 371.600 C 49.020 371.600,49.200 371.960,49.200 372.400 C 49.200 372.840,49.380 373.200,49.600 373.200 C 49.820 373.200,50.000 373.560,50.000 374.000 C 50.000 374.440,50.180 374.800,50.400 374.800 C 50.620 374.800,50.800 375.078,50.800 375.417 C 50.800 375.756,51.160 376.420,51.600 376.892 C 52.040 377.364,52.400 377.987,52.400 378.275 C 52.400 378.564,52.580 378.800,52.800 378.800 C 53.020 378.800,53.200 379.160,53.200 379.600 C 53.200 380.040,53.380 380.400,53.600 380.400 C 53.820 380.400,54.000 380.760,54.000 381.200 C 54.000 381.640,54.180 382.000,54.400 382.000 C 54.620 382.000,54.800 382.360,54.800 382.800 C 54.800 383.240,54.980 383.600,55.200 383.600 C 55.420 383.600,55.600 383.836,55.600 384.125 C 55.600 384.413,55.960 385.036,56.400 385.508 C 56.840 385.980,57.200 386.644,57.200 386.983 C 57.200 387.322,57.380 387.600,57.600 387.600 C 57.820 387.600,58.000 387.960,58.000 388.400 C 58.000 388.840,58.180 389.200,58.400 389.200 C 58.620 389.200,58.800 389.560,58.800 390.000 C 58.800 390.440,58.980 390.800,59.200 390.800 C 59.420 390.800,59.600 391.036,59.600 391.325 C 59.600 391.613,59.960 392.236,60.400 392.708 C 60.840 393.180,61.200 393.844,61.200 394.183 C 61.200 394.522,61.380 394.800,61.600 394.800 C 61.820 394.800,62.000 395.160,62.000 395.600 C 62.000 396.040,62.180 396.400,62.400 396.400 C 62.620 396.400,62.800 396.688,62.800 397.040 C 62.800 397.391,63.359 398.201,64.042 398.840 C 66.563 401.194,73.200 399.889,73.200 397.040 C 73.200 396.688,73.380 396.400,73.600 396.400 C 73.820 396.400,74.000 396.040,74.000 395.600 C 74.000 395.160,74.180 394.800,74.400 394.800 C 74.620 394.800,74.800 394.522,74.800 394.183 C 74.800 393.844,75.160 393.180,75.600 392.708 C 76.040 392.236,76.400 391.613,76.400 391.325 C 76.400 391.036,76.580 390.800,76.800 390.800 C 77.020 390.800,77.200 390.440,77.200 390.000 C 77.200 389.560,77.380 389.200,77.600 389.200 C 77.820 389.200,78.000 388.840,78.000 388.400 C 78.000 387.960,78.180 387.600,78.400 387.600 C 78.620 387.600,78.800 387.322,78.800 386.983 C 78.800 386.644,79.160 385.980,79.600 385.508 C 80.040 385.036,80.400 384.413,80.400 384.125 C 80.400 383.836,80.580 383.600,80.800 383.600 C 81.020 383.600,81.200 383.240,81.200 382.800 C 81.200 382.360,81.380 382.000,81.600 382.000 C 81.820 382.000,82.000 381.640,82.000 381.200 C 82.000 380.760,82.180 380.400,82.400 380.400 C 82.620 380.400,82.800 380.040,82.800 379.600 C 82.800 379.160,82.980 378.800,83.200 378.800 C 83.420 378.800,83.600 378.564,83.600 378.275 C 83.600 377.987,83.960 377.364,84.400 376.892 C 84.840 376.420,85.200 375.756,85.200 375.417 C 85.200 375.078,85.380 374.800,85.600 374.800 C 85.820 374.800,86.000 374.440,86.000 374.000 C 86.000 373.560,86.180 373.200,86.400 373.200 C 86.620 373.200,86.800 372.840,86.800 372.400 C 86.800 371.960,86.980 371.600,87.200 371.600 C 87.420 371.600,87.600 371.280,87.600 370.888 C 87.600 370.497,87.960 369.917,88.400 369.600 C 88.840 369.283,89.200 368.703,89.200 368.312 C 89.200 367.920,89.380 367.600,89.600 367.600 C 89.820 367.600,90.000 367.240,90.000 366.800 C 90.000 366.360,90.180 366.000,90.400 366.000 C 90.620 366.000,90.800 365.640,90.800 365.200 C 90.800 364.760,90.980 364.400,91.200 364.400 C 91.420 364.400,91.600 364.122,91.600 363.783 C 91.600 363.444,91.960 362.780,92.400 362.308 C 92.840 361.836,93.200 361.213,93.200 360.925 C 93.200 360.636,93.380 360.400,93.600 360.400 C 93.820 360.400,94.000 360.040,94.000 359.600 C 94.000 359.160,94.180 358.800,94.400 358.800 C 94.620 358.800,94.800 358.440,94.800 358.000 C 94.800 357.560,94.980 357.200,95.200 357.200 C 95.420 357.200,95.600 356.922,95.600 356.583 C 95.600 356.244,95.960 355.580,96.400 355.108 C 96.840 354.636,97.200 354.013,97.200 353.725 C 97.200 353.436,97.380 353.200,97.600 353.200 C 97.820 353.200,98.000 352.840,98.000 352.400 C 98.000 351.960,98.180 351.600,98.400 351.600 C 98.620 351.600,98.800 351.240,98.800 350.800 C 98.800 350.360,98.980 350.000,99.200 350.000 C 99.420 350.000,99.600 349.640,99.600 349.200 C 99.600 348.760,99.780 348.400,100.000 348.400 C 100.220 348.400,100.400 348.164,100.400 347.875 C 100.400 347.587,100.760 346.964,101.200 346.492 C 101.640 346.020,102.000 345.356,102.000 345.017 C 102.000 344.678,102.180 344.400,102.400 344.400 C 102.620 344.400,102.800 344.040,102.800 343.600 C 102.800 343.160,102.980 342.800,103.200 342.800 C 103.420 342.800,103.600 342.440,103.600 342.000 C 103.600 341.560,103.780 341.200,104.000 341.200 C 104.220 341.200,104.400 340.880,104.400 340.488 C 104.400 340.097,104.760 339.517,105.200 339.200 C 105.640 338.883,106.000 338.303,106.000 337.912 C 106.000 337.520,106.180 337.200,106.400 337.200 C 106.620 337.200,106.800 336.840,106.800 336.400 C 106.800 335.960,106.980 335.600,107.200 335.600 C 107.420 335.600,107.600 335.240,107.600 334.800 C 107.600 334.360,107.780 334.000,108.000 334.000 C 108.220 334.000,108.400 333.722,108.400 333.383 C 108.400 333.044,108.760 332.380,109.200 331.908 C 109.640 331.436,110.000 330.813,110.000 330.525 C 110.000 330.236,110.180 330.000,110.400 330.000 C 110.620 330.000,110.800 329.640,110.800 329.200 C 110.800 328.760,110.980 328.400,111.200 328.400 C 111.420 328.400,111.600 328.040,111.600 327.600 C 111.600 327.160,111.780 326.800,112.000 326.800 C 112.220 326.800,112.400 326.522,112.400 326.183 C 112.400 325.844,112.760 325.180,113.200 324.708 C 113.640 324.236,114.000 323.613,114.000 323.325 C 114.000 323.036,114.180 322.800,114.400 322.800 C 114.620 322.800,114.800 322.440,114.800 322.000 C 114.800 321.560,114.980 321.200,115.200 321.200 C 115.420 321.200,115.600 320.840,115.600 320.400 C 115.600 319.960,115.780 319.600,116.000 319.600 C 116.220 319.600,116.400 319.240,116.400 318.800 C 116.400 318.360,116.580 318.000,116.800 318.000 C 117.020 318.000,117.200 317.764,117.200 317.475 C 117.200 317.187,117.560 316.564,118.000 316.092 C 118.440 315.620,118.800 314.956,118.800 314.617 C 118.800 314.278,118.980 314.000,119.200 314.000 C 119.420 314.000,119.600 313.640,119.600 313.200 C 119.600 312.760,119.780 312.400,120.000 312.400 C 120.220 312.400,120.400 312.040,120.400 311.600 C 120.400 311.160,120.580 310.800,120.800 310.800 C 121.020 310.800,121.200 310.480,121.200 310.088 C 121.200 309.697,121.560 309.117,122.000 308.800 C 122.440 308.483,122.800 307.903,122.800 307.512 C 122.800 307.120,122.980 306.800,123.200 306.800 C 123.420 306.800,123.600 306.440,123.600 306.000 C 123.600 305.560,123.780 305.200,124.000 305.200 C 124.220 305.200,124.400 304.840,124.400 304.400 C 124.400 303.960,124.580 303.600,124.800 303.600 C 125.020 303.600,125.200 303.322,125.200 302.983 C 125.200 302.644,125.560 301.980,126.000 301.508 C 126.440 301.036,126.800 300.413,126.800 300.125 C 126.800 299.836,126.980 299.600,127.200 299.600 C 127.420 299.600,127.600 299.240,127.600 298.800 C 127.600 298.360,127.780 298.000,128.000 298.000 C 128.220 298.000,128.400 297.640,128.400 297.200 C 128.400 296.760,128.580 296.400,128.800 296.400 C 129.020 296.400,129.200 296.040,129.200 295.600 C 129.200 295.160,129.380 294.800,129.600 294.800 C 129.820 294.800,130.000 294.440,130.000 294.000 C 130.000 293.560,130.180 293.200,130.400 293.200 C 130.620 293.200,130.800 292.840,130.800 292.400 C 130.800 291.960,130.980 291.600,131.200 291.600 C 131.420 291.600,131.600 291.060,131.600 290.400 C 131.600 289.740,131.780 289.200,132.000 289.200 C 132.220 289.200,132.400 288.851,132.400 288.424 C 132.400 287.997,132.580 287.536,132.800 287.400 C 133.020 287.264,133.200 286.724,133.200 286.200 C 133.200 285.676,133.380 285.136,133.600 285.000 C 133.820 284.864,134.000 284.133,134.000 283.376 C 134.000 282.619,134.180 282.000,134.400 282.000 C 134.620 282.000,134.800 281.280,134.800 280.400 C 134.800 279.520,134.980 278.800,135.200 278.800 C 135.422 278.800,135.600 277.733,135.600 276.400 C 135.600 275.067,135.778 274.000,136.000 274.000 C 136.255 274.000,136.400 270.667,136.400 264.800 C 136.400 258.933,136.255 255.600,136.000 255.600 C 135.775 255.600,135.600 254.475,135.600 253.024 C 135.600 251.607,135.420 250.336,135.200 250.200 C 134.980 250.064,134.800 249.423,134.800 248.776 C 134.800 248.129,134.620 247.600,134.400 247.600 C 134.180 247.600,134.000 246.880,134.000 246.000 C 134.000 245.120,133.820 244.400,133.600 244.400 C 133.380 244.400,133.200 243.860,133.200 243.200 C 133.200 242.540,133.020 242.000,132.800 242.000 C 132.580 242.000,132.400 241.460,132.400 240.800 C 132.400 240.140,132.220 239.600,132.000 239.600 C 131.780 239.600,131.600 239.328,131.600 238.995 C 131.600 238.662,131.443 238.077,131.250 237.695 C 129.752 234.720,129.200 233.447,129.200 232.962 C 129.200 232.653,129.020 232.400,128.800 232.400 C 128.580 232.400,128.400 232.164,128.400 231.875 C 128.400 231.587,128.040 230.964,127.600 230.492 C 127.160 230.020,126.800 229.396,126.800 229.105 C 126.800 228.814,126.440 228.317,126.000 228.000 C 125.560 227.683,125.200 227.143,125.200 226.800 C 125.200 226.457,124.840 225.917,124.400 225.600 C 123.960 225.283,123.600 224.775,123.600 224.472 C 123.600 224.169,123.060 223.417,122.400 222.800 C 121.740 222.183,121.200 221.479,121.200 221.235 C 121.200 220.718,112.176 211.600,111.664 211.600 C 111.474 211.600,110.754 211.060,110.063 210.400 C 109.372 209.740,108.608 209.200,108.364 209.200 C 108.120 209.200,107.417 208.660,106.800 208.000 C 106.183 207.340,105.391 206.800,105.040 206.800 C 104.688 206.800,104.400 206.620,104.400 206.400 C 104.400 206.180,104.080 206.000,103.688 206.000 C 103.297 206.000,102.717 205.640,102.400 205.200 C 102.083 204.760,101.503 204.400,101.112 204.400 C 100.720 204.400,100.400 204.220,100.400 204.000 C 100.400 203.780,100.040 203.600,99.600 203.600 C 99.160 203.600,98.800 203.420,98.800 203.200 C 98.800 202.980,98.440 202.800,98.000 202.800 C 97.560 202.800,97.200 202.620,97.200 202.400 C 97.200 202.180,96.840 202.000,96.400 202.000 C 95.960 202.000,95.600 201.820,95.600 201.600 C 95.600 201.380,95.060 201.200,94.400 201.200 C 93.740 201.200,93.200 201.020,93.200 200.800 C 93.200 200.580,92.840 200.400,92.400 200.400 C 91.960 200.400,91.600 200.220,91.600 200.000 C 91.600 199.780,91.060 199.600,90.400 199.600 C 89.740 199.600,89.200 199.420,89.200 199.200 C 89.200 198.980,88.480 198.800,87.600 198.800 C 86.720 198.800,86.000 198.620,86.000 198.400 C 86.000 198.180,85.471 198.000,84.824 198.000 C 84.177 198.000,83.536 197.820,83.400 197.600 C 83.264 197.380,82.173 197.200,80.976 197.200 C 79.779 197.200,78.800 197.020,78.800 196.800 C 78.800 196.543,74.933 196.400,68.000 196.400 C 61.067 196.400,57.200 196.543,57.200 196.800 M205.467 220.667 C 205.096 221.037,205.129 299.909,205.500 300.138 C 205.665 300.240,205.800 282.341,205.800 260.362 C 205.800 238.383,205.785 220.400,205.767 220.400 C 205.748 220.400,205.613 220.520,205.467 220.667 M162.975 249.700 L 161.800 251.000 163.100 249.825 C 164.312 248.730,164.584 248.400,164.275 248.400 C 164.206 248.400,163.621 248.985,162.975 249.700 M183.775 255.300 L 182.600 256.600 183.900 255.425 C 185.112 254.330,185.384 254.000,185.075 254.000 C 185.006 254.000,184.421 254.585,183.775 255.300 M177.375 261.700 L 176.200 263.000 177.500 261.825 C 178.712 260.730,178.984 260.400,178.675 260.400 C 178.606 260.400,178.021 260.985,177.375 261.700 " stroke="none" fill="#bc3433" fill-rule="evenodd"></path><path id="path1" d="M28.080 28.880 C 27.722 29.238,27.600 33.595,27.600 46.056 C 27.600 56.756,27.456 62.842,27.200 63.000 C 26.980 63.136,26.800 63.689,26.800 64.229 C 26.800 64.769,26.643 65.523,26.450 65.905 C 24.942 68.899,24.400 70.156,24.400 70.661 C 24.400 71.002,24.207 71.128,23.938 70.962 C 23.650 70.784,23.585 70.852,23.765 71.143 C 23.924 71.400,23.771 72.176,23.427 72.867 C 23.082 73.558,22.796 74.320,22.791 74.561 C 22.786 74.803,22.430 75.450,22.000 76.000 C 21.570 76.550,21.214 77.375,21.209 77.833 C 21.204 78.292,21.065 78.802,20.900 78.967 C 20.616 79.250,20.571 79.396,20.450 80.424 C 20.422 80.657,20.257 80.759,20.083 80.651 C 19.909 80.544,19.737 80.845,19.701 81.321 C 19.665 81.797,19.470 82.549,19.268 82.993 C 19.065 83.437,18.699 84.250,18.453 84.800 C 18.207 85.350,17.852 86.070,17.665 86.400 C 16.621 88.238,16.419 88.800,16.800 88.800 C 17.064 88.800,17.075 89.045,16.830 89.500 C 16.622 89.885,16.217 90.785,15.929 91.500 C 15.640 92.215,15.269 92.800,15.102 92.800 C 14.936 92.800,14.800 93.250,14.800 93.800 C 14.800 94.350,14.620 94.800,14.400 94.800 C 14.180 94.800,14.000 95.076,14.000 95.414 C 14.000 95.752,13.710 96.470,13.357 97.010 C 13.003 97.550,12.623 98.669,12.514 99.496 C 12.404 100.323,12.085 101.132,11.804 101.294 C 11.523 101.456,11.171 102.401,11.022 103.394 C 10.873 104.387,10.582 105.200,10.375 105.200 C 10.169 105.200,10.000 105.560,10.000 106.000 C 10.000 106.440,9.820 106.800,9.600 106.800 C 9.380 106.800,9.200 107.261,9.200 107.824 C 9.200 108.387,9.058 108.760,8.885 108.652 C 8.712 108.545,8.530 108.940,8.481 109.529 C 8.433 110.118,8.215 110.660,7.997 110.733 C 7.778 110.807,7.600 111.094,7.600 111.372 C 7.600 111.650,7.292 112.490,6.915 113.239 C 6.537 113.987,6.172 114.956,6.103 115.391 C 6.034 115.827,5.802 116.358,5.589 116.571 C 5.375 116.785,5.200 117.374,5.200 117.880 C 5.200 118.386,5.020 118.800,4.800 118.800 C 4.580 118.800,4.400 119.139,4.400 119.554 C 4.400 120.403,3.417 122.484,3.144 122.211 C 3.047 122.114,2.938 122.428,2.902 122.910 C 2.865 123.392,2.648 124.194,2.418 124.693 C 2.188 125.192,1.799 126.095,1.553 126.700 C 1.308 127.305,0.948 128.113,0.753 128.495 C 0.252 129.479,0.296 150.289,0.800 150.600 C 1.020 150.736,1.200 151.343,1.200 151.948 C 1.200 152.554,1.581 153.838,2.047 154.802 C 2.512 155.766,2.935 156.745,2.986 156.977 C 3.173 157.827,3.747 159.025,4.465 160.062 C 4.869 160.646,5.200 161.366,5.201 161.662 C 5.201 161.958,5.741 162.830,6.400 163.600 C 7.059 164.370,7.599 165.225,7.599 165.500 C 7.600 165.775,7.750 166.000,7.932 166.000 C 8.115 166.000,8.520 166.495,8.832 167.100 C 9.145 167.705,9.627 168.440,9.904 168.732 C 10.181 169.025,10.287 169.475,10.140 169.732 C 9.992 169.990,10.002 170.084,10.161 169.942 C 10.514 169.626,12.400 171.314,12.400 171.946 C 12.400 172.196,12.535 172.400,12.701 172.400 C 12.866 172.400,13.836 173.165,14.856 174.100 C 17.444 176.472,18.099 176.992,20.571 178.633 C 21.766 179.427,22.848 180.347,22.975 180.679 C 23.104 181.016,23.471 181.182,23.803 181.054 C 24.322 180.855,24.400 182.031,24.400 189.989 C 24.400 199.578,24.453 199.872,26.039 199.050 C 26.579 198.770,27.266 198.622,27.566 198.722 C 27.895 198.832,28.000 198.724,27.832 198.452 C 27.648 198.154,27.969 198.000,28.776 198.000 C 29.449 198.000,30.000 197.820,30.000 197.600 C 30.000 197.380,30.349 197.200,30.776 197.200 C 31.203 197.200,31.666 197.017,31.804 196.793 C 31.942 196.570,32.212 196.484,32.403 196.602 C 32.594 196.720,32.897 196.588,33.075 196.308 C 33.446 195.727,35.130 194.798,36.061 194.662 C 36.406 194.611,36.996 194.261,37.372 193.885 C 37.749 193.508,38.314 193.200,38.629 193.200 C 38.943 193.200,39.200 193.020,39.200 192.800 C 39.200 192.580,39.618 192.400,40.128 192.400 C 41.155 192.400,42.582 190.988,42.654 189.900 C 42.679 189.515,42.723 188.660,42.750 188.000 L 42.800 186.800 48.976 186.800 C 52.663 186.800,55.252 186.639,55.400 186.400 C 55.536 186.180,56.436 186.000,57.400 186.000 C 58.364 186.000,59.264 185.820,59.400 185.600 C 59.536 185.380,60.177 185.200,60.824 185.200 C 61.471 185.200,62.000 185.020,62.000 184.800 C 62.000 184.580,62.414 184.400,62.920 184.400 C 63.426 184.400,64.011 184.235,64.220 184.033 C 64.429 183.832,64.960 183.607,65.400 183.533 C 65.840 183.460,67.152 182.911,68.315 182.313 C 69.479 181.716,70.321 181.446,70.186 181.713 C 70.051 181.981,70.204 181.878,70.525 181.485 C 70.847 181.092,71.288 180.822,71.506 180.885 C 71.723 180.948,72.462 180.505,73.147 179.900 C 73.832 179.295,74.556 178.800,74.754 178.800 C 74.953 178.800,75.699 178.255,76.413 177.588 C 77.127 176.921,78.215 176.016,78.832 175.577 C 80.461 174.417,82.462 172.406,83.583 170.800 C 84.121 170.030,84.746 169.274,84.970 169.121 C 85.412 168.820,86.800 170.091,86.800 170.796 C 86.800 171.032,87.069 171.328,87.398 171.454 C 87.726 171.581,87.879 171.873,87.736 172.104 C 87.593 172.335,87.660 172.410,87.885 172.271 C 88.392 171.957,89.714 173.352,89.301 173.766 C 89.135 173.931,89.270 174.007,89.600 173.933 C 89.932 173.860,90.151 174.036,90.090 174.330 C 90.030 174.621,90.145 174.758,90.346 174.633 C 90.548 174.509,91.587 175.210,92.656 176.192 C 93.725 177.173,95.365 178.370,96.300 178.851 C 97.235 179.332,98.000 179.834,98.000 179.965 C 98.000 180.097,98.585 180.455,99.300 180.761 C 100.015 181.066,100.870 181.547,101.200 181.830 C 101.530 182.112,101.890 182.326,102.000 182.305 C 102.208 182.266,104.888 183.397,106.095 184.034 C 106.477 184.235,107.231 184.400,107.771 184.400 C 108.311 184.400,108.864 184.580,109.000 184.800 C 109.136 185.020,109.697 185.200,110.247 185.200 C 110.941 185.200,111.155 185.353,110.947 185.700 C 110.743 186.040,110.863 186.024,111.323 185.651 C 111.695 185.349,112.000 185.286,112.000 185.511 C 112.000 186.418,129.278 187.282,130.142 186.418 C 130.372 186.188,131.514 186.000,132.680 186.000 C 133.846 186.000,134.800 185.820,134.800 185.600 C 134.800 185.380,135.329 185.200,135.976 185.200 C 136.623 185.200,137.264 185.020,137.400 184.800 C 137.536 184.580,137.999 184.400,138.429 184.400 C 138.859 184.400,139.568 184.220,140.005 184.000 C 140.442 183.780,141.158 183.420,141.595 183.200 C 142.032 182.980,142.662 182.800,142.995 182.800 C 143.328 182.800,143.601 182.665,143.603 182.500 C 143.607 182.141,145.544 181.200,146.280 181.200 C 146.566 181.200,146.800 181.034,146.800 180.831 C 146.800 180.628,147.416 180.259,148.168 180.011 C 148.920 179.762,149.751 179.300,150.013 178.984 C 150.276 178.668,150.652 178.508,150.848 178.630 C 151.045 178.751,151.313 178.570,151.445 178.228 C 151.576 177.885,151.873 177.721,152.104 177.864 C 152.335 178.007,152.408 177.936,152.266 177.706 C 152.124 177.477,152.652 176.797,153.440 176.196 C 154.228 175.595,156.283 173.683,158.005 171.946 L 161.137 168.789 162.064 170.094 C 163.139 171.609,168.846 177.195,169.322 177.198 C 169.499 177.199,170.219 177.739,170.922 178.398 C 171.625 179.057,172.425 179.597,172.700 179.598 C 172.975 179.599,173.200 179.780,173.200 180.000 C 173.200 180.220,173.441 180.400,173.736 180.400 C 174.031 180.400,176.039 181.300,178.200 182.400 C 180.361 183.500,182.629 184.400,183.241 184.400 C 183.852 184.400,184.464 184.580,184.600 184.800 C 184.736 185.020,185.287 185.200,185.824 185.200 C 186.361 185.200,186.800 185.380,186.800 185.600 C 186.800 185.820,187.779 186.000,188.976 186.000 C 190.173 186.000,191.264 186.180,191.400 186.400 C 191.549 186.642,194.396 186.800,198.600 186.800 C 202.804 186.800,205.651 186.642,205.800 186.400 C 205.936 186.180,206.926 186.000,208.000 186.000 C 209.074 186.000,210.064 185.820,210.200 185.600 C 210.336 185.380,210.876 185.200,211.400 185.200 C 211.924 185.200,212.464 185.020,212.600 184.800 C 212.736 184.580,213.366 184.400,214.000 184.400 C 214.634 184.400,215.264 184.220,215.400 184.000 C 215.536 183.780,215.994 183.600,216.418 183.600 C 216.842 183.600,218.347 182.986,219.762 182.235 C 221.178 181.484,222.428 180.961,222.540 181.074 C 222.653 181.186,222.980 180.900,223.269 180.439 C 223.557 179.978,224.154 179.599,224.596 179.598 C 225.038 179.597,226.261 178.780,227.314 177.783 C 228.367 176.786,229.406 176.080,229.624 176.215 C 229.842 176.349,229.970 176.301,229.910 176.107 C 229.849 175.914,230.745 174.847,231.900 173.737 C 233.055 172.628,234.000 171.601,234.000 171.456 C 234.000 171.312,234.470 170.665,235.045 170.020 L 236.091 168.846 239.813 172.623 C 241.860 174.700,243.729 176.400,243.967 176.400 C 244.205 176.400,244.401 176.535,244.402 176.700 C 244.403 176.865,245.380 177.624,246.572 178.387 C 247.765 179.149,248.676 179.877,248.598 180.004 C 248.519 180.130,248.848 180.263,249.328 180.297 C 249.807 180.332,250.447 180.730,250.749 181.181 C 251.051 181.631,251.625 182.000,252.025 182.000 C 252.425 182.000,252.864 182.180,253.000 182.400 C 253.136 182.620,253.676 182.800,254.200 182.800 C 254.724 182.800,255.264 182.980,255.400 183.200 C 255.536 183.420,255.997 183.600,256.424 183.600 C 256.851 183.600,257.200 183.780,257.200 184.000 C 257.200 184.220,257.729 184.400,258.376 184.400 C 259.023 184.400,259.664 184.580,259.800 184.800 C 259.936 185.020,260.476 185.200,261.000 185.200 C 261.524 185.200,262.064 185.380,262.200 185.600 C 262.336 185.820,263.416 186.000,264.600 186.000 C 265.784 186.000,266.864 186.180,267.000 186.400 C 267.150 186.643,270.063 186.800,274.400 186.800 C 278.737 186.800,281.650 186.643,281.800 186.400 C 281.936 186.180,282.937 186.000,284.024 186.000 C 285.111 186.000,286.000 185.820,286.000 185.600 C 286.000 185.380,286.439 185.200,286.976 185.200 C 287.513 185.200,288.064 185.020,288.200 184.800 C 288.336 184.580,288.977 184.400,289.624 184.400 C 290.271 184.400,290.800 184.220,290.800 184.000 C 290.800 183.780,291.072 183.600,291.405 183.600 C 291.738 183.600,292.368 183.420,292.805 183.200 C 293.242 182.980,293.958 182.620,294.395 182.400 C 294.832 182.180,295.462 182.000,295.795 182.000 C 296.128 182.000,296.400 181.859,296.400 181.688 C 296.400 181.516,296.895 181.156,297.500 180.888 C 299.484 180.009,301.782 178.617,302.800 177.677 C 303.350 177.170,304.281 176.464,304.869 176.110 C 305.456 175.755,306.151 175.065,306.413 174.576 C 306.675 174.087,307.566 173.178,308.393 172.555 C 309.220 171.933,310.360 170.703,310.926 169.822 C 311.778 168.497,312.003 168.342,312.226 168.925 C 312.460 169.534,314.010 171.291,317.484 174.885 C 318.688 176.130,319.953 177.200,320.222 177.200 C 320.344 177.200,321.504 177.920,322.800 178.800 C 324.096 179.680,325.352 180.400,325.591 180.400 C 325.830 180.400,326.128 180.669,326.254 180.998 C 326.381 181.326,326.621 181.511,326.788 181.407 C 326.956 181.304,327.415 181.575,327.809 182.009 C 328.202 182.444,329.036 182.800,329.662 182.800 C 330.288 182.800,330.800 182.980,330.800 183.200 C 330.800 183.420,331.149 183.600,331.576 183.600 C 332.003 183.600,332.464 183.780,332.600 184.000 C 332.736 184.220,333.276 184.400,333.800 184.400 C 334.324 184.400,334.864 184.580,335.000 184.800 C 335.136 185.020,335.676 185.200,336.200 185.200 C 336.724 185.200,337.264 185.380,337.400 185.600 C 337.536 185.820,338.706 186.000,340.000 186.000 C 341.294 186.000,342.464 186.180,342.600 186.400 C 342.747 186.638,345.271 186.800,348.824 186.800 L 354.800 186.800 354.794 268.100 C 354.791 312.815,354.642 349.629,354.464 349.910 C 354.218 350.298,352.479 350.393,347.170 350.310 L 340.200 350.200 340.103 276.200 L 340.006 202.200 289.403 202.098 L 238.800 201.997 238.800 275.991 L 238.800 349.985 237.900 350.203 C 237.405 350.322,209.055 350.371,174.900 350.310 C 140.745 350.250,112.800 350.335,112.800 350.500 C 112.800 350.665,112.609 350.800,112.376 350.800 C 112.143 350.800,112.081 350.592,112.238 350.338 C 112.415 350.052,112.348 349.985,112.062 350.162 C 111.808 350.319,111.600 350.707,111.600 351.024 C 111.600 351.341,111.420 351.600,111.200 351.600 C 110.980 351.600,110.800 351.836,110.800 352.125 C 110.800 352.413,110.440 353.036,110.000 353.508 C 109.560 353.980,109.200 354.616,109.200 354.921 C 109.200 355.226,108.839 355.803,108.398 356.202 C 107.956 356.602,107.681 357.015,107.787 357.120 C 108.040 357.374,106.718 359.600,106.314 359.600 C 106.141 359.600,106.000 359.932,106.000 360.338 C 106.000 360.744,105.639 361.403,105.198 361.802 C 104.756 362.202,104.481 362.615,104.587 362.720 C 104.840 362.974,103.518 365.200,103.114 365.200 C 102.941 365.200,102.800 365.524,102.800 365.920 C 102.800 366.316,102.600 366.840,102.355 367.085 C 101.045 368.395,101.821 368.402,237.871 368.399 C 357.968 368.396,373.238 368.328,372.798 367.798 C 372.428 367.351,372.422 367.200,372.775 367.200 C 373.035 367.200,373.145 367.035,373.020 366.833 C 372.553 366.077,372.782 181.504,373.251 180.939 C 373.497 180.643,374.042 180.400,374.462 180.400 C 374.881 180.400,375.322 180.147,375.441 179.838 C 375.559 179.529,376.679 178.602,377.928 177.779 C 379.988 176.422,387.600 169.033,387.600 168.391 C 387.600 168.244,387.960 167.798,388.400 167.400 C 388.840 167.002,389.200 166.472,389.200 166.223 C 389.200 165.974,389.733 165.147,390.384 164.385 C 391.035 163.623,391.575 162.803,391.584 162.562 C 391.593 162.321,391.961 161.797,392.402 161.398 C 392.844 160.998,393.126 160.593,393.030 160.496 C 392.933 160.400,393.217 159.625,393.660 158.774 C 394.104 157.923,394.505 156.969,394.551 156.654 C 394.597 156.339,394.897 155.758,395.218 155.364 C 395.693 154.779,395.696 154.709,395.238 154.985 C 394.820 155.237,394.766 155.180,395.027 154.762 C 395.219 154.453,395.432 153.840,395.500 153.400 C 395.568 152.960,395.798 152.540,396.012 152.467 C 396.225 152.393,396.400 151.819,396.400 151.190 C 396.400 150.562,396.551 149.954,396.735 149.840 C 397.207 149.548,397.297 129.907,396.828 129.618 C 396.621 129.490,396.385 128.938,396.304 128.393 C 396.222 127.847,395.681 126.410,395.101 125.200 C 394.521 123.990,393.981 122.499,393.901 121.887 C 393.821 121.275,393.451 120.418,393.078 119.983 C 392.705 119.547,392.400 118.833,392.400 118.395 C 392.400 117.958,392.220 117.600,392.000 117.600 C 391.780 117.600,391.600 117.276,391.600 116.880 C 391.600 116.484,391.375 115.918,391.100 115.621 C 390.694 115.183,390.712 115.144,391.200 115.410 C 391.586 115.621,391.528 115.428,391.038 114.869 C 390.619 114.391,390.391 114.000,390.531 114.000 C 390.672 114.000,390.429 113.365,389.993 112.588 C 389.557 111.811,389.200 110.911,389.200 110.588 C 389.200 110.265,389.020 110.000,388.800 110.000 C 388.580 110.000,388.400 109.561,388.400 109.024 C 388.400 108.487,388.220 107.936,388.000 107.800 C 387.780 107.664,387.600 107.203,387.600 106.776 C 387.600 106.349,387.420 106.000,387.200 106.000 C 386.980 106.000,386.800 105.645,386.800 105.212 C 386.800 104.779,386.440 103.783,386.000 103.000 C 385.560 102.217,385.200 101.311,385.200 100.988 C 385.200 100.665,385.020 100.400,384.800 100.400 C 384.580 100.400,384.400 100.128,384.400 99.795 C 384.400 99.462,384.243 98.877,384.050 98.495 C 382.492 95.402,382.000 94.224,382.000 93.586 C 382.000 93.180,381.820 92.736,381.600 92.600 C 381.380 92.464,381.196 91.958,381.191 91.476 C 381.186 90.994,380.830 90.150,380.400 89.600 C 379.970 89.050,379.614 88.231,379.609 87.780 C 379.604 87.329,379.408 86.768,379.172 86.532 C 378.937 86.297,378.694 85.856,378.633 85.552 C 378.442 84.609,377.900 83.443,377.145 82.353 C 376.747 81.777,376.379 80.754,376.327 80.081 C 376.276 79.407,376.091 78.944,375.917 79.051 C 375.743 79.159,375.600 78.964,375.600 78.618 C 375.600 78.272,375.441 77.677,375.247 77.295 C 374.876 76.565,374.278 75.148,373.773 73.800 C 373.608 73.360,373.511 72.836,373.558 72.637 C 373.604 72.437,373.427 72.140,373.164 71.977 C 372.630 71.648,371.615 68.988,371.606 67.895 C 371.603 67.507,371.433 66.877,371.229 66.495 C 369.156 62.618,369.230 63.359,369.111 45.397 L 369.000 28.600 198.780 28.500 C 66.718 28.422,28.453 28.507,28.080 28.880 M350.512 53.900 L 350.425 61.000 198.212 61.101 L 46.000 61.201 46.000 54.001 L 46.000 46.800 198.300 46.800 L 350.600 46.800 350.512 53.900 M86.372 81.697 C 86.167 82.411,86.000 83.570,86.000 84.274 C 86.000 84.977,85.851 85.645,85.669 85.758 C 85.486 85.870,85.296 86.916,85.246 88.081 C 85.115 91.085,85.098 91.200,84.785 91.200 C 84.630 91.200,84.508 91.695,84.512 92.300 C 84.535 95.157,84.388 96.040,83.938 95.762 C 83.622 95.566,83.587 95.654,83.827 96.038 C 84.351 96.880,84.449 98.000,83.997 98.000 C 83.779 98.000,83.600 98.911,83.600 100.024 C 83.600 101.536,83.474 101.971,83.100 101.747 C 82.789 101.560,82.818 101.715,83.176 102.156 C 83.626 102.710,83.651 103.027,83.289 103.606 C 83.034 104.014,82.793 105.446,82.753 106.788 C 82.712 108.129,82.527 109.322,82.340 109.437 C 82.153 109.553,82.000 110.807,82.000 112.224 C 82.000 113.675,81.825 114.800,81.600 114.800 C 81.375 114.800,81.200 115.925,81.200 117.376 C 81.200 118.793,81.020 120.064,80.800 120.200 C 80.580 120.336,80.400 121.506,80.400 122.800 C 80.400 124.094,80.220 125.264,80.000 125.400 C 79.780 125.536,79.600 126.087,79.600 126.624 L 79.600 127.600 50.138 127.600 L 20.676 127.600 21.438 126.731 C 21.857 126.253,21.971 125.997,21.690 126.161 C 21.408 126.326,21.542 125.815,21.990 125.018 C 22.436 124.225,22.800 123.221,22.800 122.788 C 22.800 122.355,22.980 122.000,23.200 122.000 C 23.420 122.000,23.600 121.728,23.600 121.395 C 23.600 121.062,23.759 120.477,23.953 120.095 C 24.148 119.713,24.489 118.950,24.713 118.400 C 24.936 117.850,25.443 116.680,25.839 115.800 C 26.235 114.920,26.618 113.840,26.691 113.400 C 26.764 112.960,26.998 112.540,27.212 112.467 C 27.425 112.393,27.600 112.024,27.600 111.647 C 27.600 111.269,27.743 110.789,27.918 110.580 C 28.093 110.371,28.469 109.480,28.752 108.600 C 29.257 107.033,30.441 104.391,31.173 103.200 C 31.720 102.311,32.106 101.147,32.295 99.817 C 32.388 99.167,32.809 98.149,33.232 97.556 C 33.654 96.962,34.000 96.156,34.000 95.764 C 34.000 95.372,34.391 94.635,34.870 94.126 C 35.434 93.525,35.553 93.200,35.208 93.200 C 34.813 93.200,34.847 93.011,35.339 92.468 C 35.703 92.065,35.893 91.627,35.761 91.494 C 35.628 91.361,35.891 90.854,36.346 90.366 C 36.800 89.878,37.073 89.318,36.952 89.122 C 36.830 88.926,36.936 88.518,37.186 88.217 C 37.436 87.916,37.732 87.159,37.844 86.535 C 37.956 85.911,38.217 85.229,38.424 85.020 C 38.631 84.811,38.800 84.237,38.800 83.744 C 38.800 83.251,38.980 82.736,39.200 82.600 C 39.420 82.464,39.600 81.913,39.600 81.376 L 39.600 80.400 63.172 80.400 L 86.744 80.400 86.372 81.697 M155.411 81.300 C 155.004 82.593,154.867 84.303,154.675 90.454 C 154.581 93.454,154.412 96.064,154.300 96.254 C 154.188 96.444,154.064 100.099,154.024 104.376 C 153.985 108.653,153.833 112.343,153.687 112.576 C 153.320 113.161,153.329 112.989,153.261 120.700 L 153.200 127.600 125.600 127.600 C 98.003 127.600,98.000 127.600,98.000 126.776 C 98.000 126.323,98.180 126.064,98.400 126.200 C 98.648 126.353,98.800 125.612,98.800 124.247 C 98.800 123.037,98.957 121.950,99.149 121.831 C 99.341 121.713,99.525 120.329,99.557 118.757 C 99.590 117.184,99.719 115.731,99.846 115.526 C 100.150 115.033,100.759 111.233,101.051 108.000 C 101.180 106.570,101.421 105.220,101.586 105.000 C 101.752 104.780,101.912 103.819,101.942 102.864 C 101.972 101.909,102.123 100.925,102.276 100.677 C 102.562 100.214,102.654 99.380,102.826 95.685 C 102.880 94.522,103.076 93.476,103.262 93.362 C 103.448 93.247,103.600 92.094,103.600 90.800 C 103.600 89.506,103.780 88.336,104.000 88.200 C 104.220 88.064,104.400 87.279,104.400 86.456 C 104.400 85.633,104.625 84.718,104.900 84.421 C 105.304 83.986,105.293 83.944,104.838 84.203 C 104.422 84.441,104.368 84.378,104.632 83.962 C 105.055 83.294,105.085 83.156,105.150 81.600 L 105.200 80.400 130.447 80.400 L 155.693 80.400 155.411 81.300 M223.663 82.094 C 223.698 83.032,223.711 84.067,223.692 84.394 C 223.673 84.721,223.814 85.085,224.006 85.204 C 224.198 85.322,224.385 89.195,224.423 93.810 C 224.460 98.424,224.642 102.388,224.826 102.618 C 225.011 102.848,225.258 106.088,225.376 109.818 C 225.494 113.548,225.692 119.075,225.817 122.100 L 226.043 127.600 198.408 127.600 C 170.896 127.600,170.774 127.596,171.200 126.800 C 171.524 126.194,171.503 125.992,171.114 125.968 C 170.750 125.946,170.737 125.881,171.072 125.745 C 171.405 125.609,171.554 123.605,171.579 118.908 C 171.599 115.253,171.759 112.069,171.935 111.831 C 172.110 111.594,172.301 108.610,172.359 105.200 C 172.418 101.790,172.556 98.370,172.666 97.600 C 172.776 96.830,172.955 93.232,173.064 89.604 C 173.172 85.977,173.426 82.810,173.627 82.567 C 173.828 82.325,173.869 82.003,173.718 81.852 C 172.303 80.436,172.518 80.424,198.437 80.406 L 223.600 80.389 223.663 82.094 M292.400 82.376 C 292.400 83.463,292.580 84.464,292.800 84.600 C 293.020 84.736,293.200 85.906,293.200 87.200 C 293.200 88.494,293.380 89.664,293.600 89.800 C 293.820 89.936,294.000 91.081,294.000 92.344 C 294.000 93.607,294.165 94.811,294.366 95.020 C 294.568 95.229,294.838 96.525,294.966 97.900 C 295.095 99.275,295.305 101.525,295.434 102.900 C 295.562 104.275,295.832 105.571,296.034 105.780 C 296.235 105.989,296.400 107.193,296.400 108.456 C 296.400 109.719,296.580 110.864,296.800 111.000 C 297.020 111.136,297.200 112.281,297.200 113.544 C 297.200 114.807,297.370 116.011,297.577 116.220 C 297.784 116.429,297.989 117.860,298.031 119.400 C 298.074 120.940,298.245 122.380,298.411 122.600 C 298.577 122.820,298.790 124.035,298.883 125.300 L 299.054 127.600 271.727 127.600 L 244.400 127.600 244.348 125.100 C 244.319 123.725,244.274 121.520,244.248 120.200 C 244.222 118.880,244.071 117.602,243.913 117.359 C 243.755 117.116,243.605 113.921,243.580 110.259 C 243.548 105.493,243.402 103.591,243.067 103.568 C 242.762 103.548,242.779 103.465,243.117 103.330 C 243.461 103.191,243.504 102.967,243.246 102.655 C 243.033 102.399,242.811 98.715,242.752 94.470 C 242.694 90.225,242.500 86.662,242.323 86.552 C 242.145 86.443,242.000 85.013,242.000 83.376 L 242.000 80.400 267.200 80.400 L 292.400 80.400 292.400 82.376 M357.463 81.404 C 357.786 82.101,357.793 82.319,357.484 82.128 C 357.241 81.978,357.438 82.411,357.921 83.090 C 358.405 83.768,358.800 84.701,358.800 85.162 C 358.800 85.623,358.980 86.000,359.200 86.000 C 359.420 86.000,359.600 86.439,359.600 86.976 C 359.600 87.513,359.780 88.064,360.000 88.200 C 360.220 88.336,360.400 88.797,360.400 89.224 C 360.400 89.651,360.558 90.000,360.751 90.000 C 360.945 90.000,361.321 90.585,361.589 91.300 C 361.856 92.015,362.418 93.292,362.837 94.138 C 363.257 94.984,363.600 96.013,363.600 96.426 C 363.600 96.838,363.960 97.817,364.400 98.600 C 364.840 99.383,365.200 100.289,365.200 100.612 C 365.200 100.935,365.380 101.200,365.600 101.200 C 365.820 101.200,366.000 101.740,366.000 102.400 C 366.000 103.060,366.180 103.600,366.400 103.600 C 366.620 103.600,366.800 103.872,366.800 104.205 C 366.800 104.818,366.941 105.158,368.165 107.500 C 368.539 108.215,368.741 108.800,368.613 108.800 C 368.486 108.800,368.676 109.250,369.037 109.800 C 369.397 110.350,369.545 110.800,369.366 110.800 C 369.187 110.800,369.256 111.016,369.520 111.280 C 369.784 111.544,370.000 112.069,370.000 112.447 C 370.000 112.824,370.197 113.199,370.437 113.279 C 370.677 113.359,370.902 113.897,370.937 114.474 C 370.972 115.051,371.135 115.440,371.300 115.338 C 371.465 115.236,371.600 115.513,371.600 115.953 C 371.600 116.393,371.772 116.859,371.983 116.989 C 372.193 117.119,372.264 117.488,372.141 117.809 C 372.016 118.135,372.199 118.502,372.556 118.639 C 372.908 118.773,373.098 119.041,372.979 119.234 C 372.860 119.426,372.989 119.992,373.265 120.492 C 373.542 120.991,373.722 121.627,373.665 121.905 C 373.609 122.183,373.841 122.518,374.181 122.648 C 374.542 122.787,374.800 123.368,374.800 124.043 C 374.800 124.679,374.980 125.200,375.200 125.200 C 375.420 125.200,375.600 125.524,375.600 125.920 C 375.600 126.316,375.816 126.856,376.080 127.120 C 376.453 127.493,370.012 127.600,347.093 127.600 C 322.011 127.600,317.657 127.517,317.840 127.040 C 317.958 126.733,317.862 126.362,317.627 126.217 C 317.392 126.072,317.200 124.984,317.200 123.800 C 317.200 122.616,317.065 121.564,316.900 121.462 C 316.735 121.360,316.543 120.224,316.474 118.938 C 316.405 117.652,316.180 116.429,315.974 116.220 C 315.768 116.011,315.600 114.706,315.600 113.320 C 315.600 111.588,315.444 110.790,315.100 110.768 C 314.717 110.744,314.721 110.688,315.117 110.530 C 315.466 110.389,315.506 110.169,315.240 109.849 C 315.024 109.588,314.805 108.436,314.752 107.288 C 314.700 106.139,314.509 105.200,314.329 105.200 C 314.148 105.200,314.000 104.030,314.000 102.600 C 314.000 101.133,313.826 100.000,313.600 100.000 C 313.375 100.000,313.200 98.875,313.200 97.424 C 313.200 96.007,313.020 94.736,312.800 94.600 C 312.580 94.464,312.400 93.384,312.400 92.200 C 312.400 91.016,312.220 89.936,312.000 89.800 C 311.780 89.664,311.600 88.404,311.600 87.000 C 311.600 85.596,311.420 84.336,311.200 84.200 C 310.980 84.064,310.800 83.153,310.800 82.176 L 310.800 80.400 333.900 80.403 L 357.000 80.406 357.463 81.404 M76.814 146.774 C 76.586 147.199,76.400 148.112,76.400 148.802 C 76.400 150.175,74.816 152.732,72.331 155.371 C 71.489 156.264,70.800 157.135,70.800 157.304 C 70.800 157.885,64.814 163.600,64.206 163.600 C 63.873 163.600,63.600 163.747,63.600 163.926 C 63.600 164.340,60.515 166.000,59.745 166.000 C 59.427 166.000,58.820 166.323,58.397 166.717 C 57.973 167.112,56.954 167.480,56.133 167.535 C 55.311 167.591,54.412 167.824,54.136 168.053 C 53.450 168.622,41.641 168.601,41.069 168.029 C 40.833 167.793,40.147 167.600,39.544 167.600 C 38.941 167.600,38.336 167.420,38.200 167.200 C 38.064 166.980,37.603 166.800,37.176 166.800 C 36.749 166.800,36.400 166.620,36.400 166.400 C 36.400 166.180,36.147 166.000,35.838 166.000 C 35.111 166.000,32.022 164.400,31.040 163.514 C 30.621 163.136,30.096 162.941,29.871 163.079 C 29.623 163.233,29.567 163.064,29.727 162.645 C 29.895 162.209,29.835 162.055,29.564 162.222 C 29.089 162.516,23.600 157.043,23.600 156.276 C 23.600 156.010,23.240 155.568,22.800 155.293 C 22.360 155.018,22.000 154.435,22.000 153.997 C 22.000 153.558,21.820 153.200,21.600 153.200 C 21.380 153.200,21.200 152.840,21.200 152.400 C 21.200 151.960,21.020 151.600,20.800 151.600 C 20.580 151.600,20.400 151.240,20.400 150.800 C 20.400 150.360,20.220 150.000,20.000 150.000 C 19.780 150.000,19.600 149.460,19.600 148.800 C 19.600 148.140,19.420 147.600,19.200 147.600 C 18.980 147.600,18.800 147.240,18.800 146.800 C 18.800 146.007,19.067 146.000,48.014 146.000 C 76.773 146.000,77.222 146.012,76.814 146.774 M151.674 148.100 C 151.526 150.575,150.839 152.248,149.426 153.576 C 148.862 154.106,148.400 154.706,148.400 154.909 C 148.400 155.113,147.860 155.783,147.200 156.400 C 146.540 157.017,146.000 157.656,146.000 157.820 C 146.000 158.140,142.084 162.000,141.760 162.000 C 141.653 162.000,141.180 162.360,140.708 162.800 C 140.236 163.240,139.613 163.600,139.325 163.600 C 139.036 163.600,138.800 163.752,138.800 163.937 C 138.800 164.123,137.945 164.684,136.900 165.184 C 135.855 165.685,134.308 166.433,133.462 166.847 C 132.616 167.261,131.437 167.600,130.842 167.600 C 130.247 167.600,129.563 167.797,129.322 168.038 C 128.731 168.629,116.862 168.622,116.271 168.031 C 116.034 167.794,115.424 167.600,114.915 167.600 C 114.406 167.600,113.677 167.440,113.295 167.244 C 112.913 167.048,111.700 166.463,110.600 165.944 C 109.500 165.425,108.258 164.692,107.839 164.314 C 107.421 163.937,106.925 163.723,106.737 163.839 C 106.548 163.956,106.286 163.769,106.154 163.425 C 106.022 163.081,105.709 162.794,105.457 162.787 C 104.874 162.771,103.188 161.289,102.283 159.997 C 101.899 159.449,101.407 159.000,101.190 159.000 C 100.973 159.000,100.063 157.920,99.168 156.600 C 98.273 155.280,96.924 153.533,96.170 152.717 C 95.027 151.481,94.800 150.932,94.800 149.412 C 94.800 145.670,91.996 146.000,123.796 146.000 L 151.800 146.000 151.674 148.100 M226.833 147.500 C 226.852 148.325,226.913 149.421,226.969 149.936 C 227.025 150.450,226.830 151.112,226.536 151.407 C 226.241 151.702,226.000 152.114,226.000 152.323 C 226.000 152.532,225.280 153.445,224.400 154.352 C 223.520 155.259,222.800 156.145,222.800 156.321 C 222.800 156.669,219.275 160.400,218.946 160.400 C 218.836 160.400,218.168 160.985,217.461 161.700 C 215.237 163.949,210.377 166.800,208.767 166.800 C 208.371 166.800,207.936 166.980,207.800 167.200 C 207.664 167.420,207.038 167.600,206.410 167.600 C 205.781 167.600,205.202 167.793,205.124 168.028 C 204.932 168.603,192.431 168.591,191.856 168.016 C 191.627 167.787,190.936 167.600,190.320 167.600 C 189.704 167.600,189.200 167.420,189.200 167.200 C 189.200 166.980,188.870 166.800,188.467 166.800 C 188.063 166.800,187.608 166.675,187.455 166.522 C 187.302 166.369,186.919 166.206,186.603 166.159 C 186.287 166.113,185.500 165.698,184.853 165.238 C 184.206 164.777,183.479 164.400,183.238 164.400 C 182.997 164.400,182.800 164.220,182.800 164.000 C 182.800 163.780,182.478 163.600,182.084 163.600 C 181.689 163.600,180.705 162.880,179.896 162.000 C 179.087 161.120,178.246 160.400,178.027 160.400 C 177.807 160.400,177.443 160.054,177.217 159.631 C 176.990 159.208,176.579 158.622,176.303 158.328 C 174.834 156.769,172.044 153.236,171.384 152.100 C 170.968 151.385,170.486 150.800,170.314 150.800 C 170.141 150.800,170.000 149.720,170.000 148.400 L 170.000 146.000 198.400 146.000 L 226.800 146.000 226.833 147.500 M301.891 146.700 C 301.926 147.085,302.039 148.245,302.143 149.279 C 302.277 150.600,302.165 151.297,301.766 151.628 C 301.455 151.886,301.200 152.306,301.200 152.561 C 301.200 152.815,300.840 153.283,300.400 153.600 C 299.960 153.917,299.600 154.384,299.600 154.638 C 299.600 155.244,295.221 160.162,294.533 160.329 C 294.240 160.400,294.000 160.721,294.000 161.042 C 294.000 161.363,293.685 161.745,293.300 161.892 C 292.915 162.039,292.251 162.484,291.825 162.880 C 291.398 163.276,290.813 163.600,290.525 163.600 C 290.236 163.600,290.000 163.759,290.000 163.953 C 290.000 164.148,289.685 164.422,289.300 164.563 C 288.915 164.704,287.880 165.250,287.000 165.777 C 286.120 166.304,284.995 166.750,284.500 166.768 C 284.005 166.785,283.600 166.980,283.600 167.200 C 283.600 167.420,283.006 167.600,282.280 167.600 C 281.554 167.600,280.767 167.793,280.532 168.028 C 279.942 168.618,268.868 168.628,268.280 168.040 C 268.038 167.798,267.244 167.600,266.515 167.600 C 265.786 167.600,264.877 167.441,264.495 167.247 C 264.113 167.052,263.260 166.671,262.600 166.400 C 260.952 165.723,258.381 164.381,258.000 164.000 C 257.890 163.890,257.440 163.592,257.000 163.337 C 256.560 163.083,256.249 162.664,256.310 162.407 C 256.370 162.151,256.222 162.063,255.981 162.212 C 255.401 162.570,249.200 156.128,249.200 155.167 C 249.200 154.761,248.840 154.235,248.400 154.000 C 247.960 153.765,247.600 153.374,247.600 153.133 C 247.600 152.891,247.285 152.401,246.900 152.043 C 245.701 150.927,245.200 149.679,245.200 147.805 L 245.200 146.000 273.514 146.000 C 300.190 146.000,301.832 146.041,301.891 146.700 M378.085 147.205 C 377.987 147.868,377.749 148.508,377.554 148.629 C 377.359 148.749,377.200 149.199,377.200 149.629 C 377.200 150.335,376.522 151.891,375.992 152.400 C 375.877 152.510,375.554 153.050,375.272 153.600 C 373.969 156.149,373.491 156.867,372.966 157.068 C 372.655 157.188,372.400 157.446,372.400 157.643 C 372.400 158.481,366.725 163.600,365.795 163.600 C 365.468 163.600,365.200 163.780,365.200 164.000 C 365.200 164.220,364.958 164.400,364.662 164.400 C 364.366 164.400,363.798 164.760,363.400 165.200 C 363.002 165.640,362.380 166.000,362.018 166.000 C 361.173 166.000,359.207 166.908,359.203 167.300 C 359.201 167.465,358.516 167.600,357.680 167.600 C 356.844 167.600,355.963 167.797,355.722 168.038 C 355.095 168.665,344.141 168.615,343.378 167.982 C 342.922 167.603,342.793 167.618,342.768 168.051 C 342.745 168.456,342.684 168.469,342.535 168.100 C 342.424 167.825,341.994 167.600,341.579 167.600 C 341.164 167.600,340.183 167.240,339.400 166.800 C 338.617 166.360,337.694 166.000,337.350 166.000 C 337.005 166.000,336.246 165.679,335.662 165.286 C 335.078 164.893,334.105 164.322,333.500 164.018 C 332.895 163.714,332.400 163.315,332.400 163.132 C 332.400 162.950,332.175 162.796,331.900 162.791 C 331.314 162.780,327.600 159.326,327.600 158.792 C 327.600 158.592,327.240 158.235,326.800 158.000 C 326.360 157.765,326.000 157.351,326.000 157.082 C 326.000 156.813,325.640 156.368,325.200 156.093 C 324.760 155.818,324.400 155.347,324.400 155.047 C 324.400 154.747,323.680 153.713,322.800 152.751 C 321.920 151.788,321.187 150.820,321.171 150.600 C 321.155 150.380,321.098 149.570,321.044 148.800 C 320.990 148.030,320.804 147.085,320.630 146.700 C 320.331 146.037,321.841 146.000,349.288 146.000 L 378.261 146.000 378.085 147.205 M116.000 202.800 C 116.000 203.252,116.267 203.600,116.613 203.600 C 116.949 203.600,117.322 203.854,117.441 204.163 C 117.560 204.473,118.182 204.944,118.824 205.210 C 119.465 205.475,119.889 205.856,119.766 206.055 C 119.643 206.254,120.140 206.674,120.871 206.988 C 121.602 207.302,122.920 208.401,123.800 209.430 C 124.680 210.459,125.809 211.724,126.309 212.241 C 126.809 212.759,127.236 213.321,127.257 213.491 C 127.374 214.422,128.018 215.521,128.569 215.733 C 128.916 215.866,129.200 216.251,129.200 216.587 C 129.200 216.924,129.380 217.200,129.600 217.200 C 129.820 217.200,130.006 217.515,130.013 217.900 C 130.027 218.693,131.039 220.174,131.617 220.250 C 131.828 220.278,148.650 220.322,169.000 220.350 L 206.000 220.400 206.000 260.533 C 206.000 282.607,205.925 300.742,205.833 300.833 C 205.742 300.925,191.162 300.910,173.433 300.800 C 155.705 300.690,141.200 300.692,141.200 300.805 C 141.200 300.918,140.795 301.188,140.300 301.405 C 139.805 301.622,139.222 302.205,139.005 302.700 C 138.788 303.195,138.473 303.600,138.305 303.600 C 138.137 303.600,138.000 303.932,138.000 304.338 C 138.000 304.744,137.644 305.398,137.209 305.791 C 136.775 306.185,136.503 306.642,136.605 306.808 C 136.707 306.974,136.523 307.332,136.196 307.604 C 135.868 307.876,135.600 308.346,135.600 308.649 C 135.600 308.952,135.420 309.200,135.200 309.200 C 134.980 309.200,134.800 309.532,134.800 309.938 C 134.800 310.344,134.444 310.998,134.009 311.391 C 133.575 311.785,133.303 312.242,133.405 312.408 C 133.507 312.574,133.323 312.932,132.996 313.204 C 132.668 313.476,132.400 313.946,132.400 314.249 C 132.400 314.552,132.220 314.800,132.000 314.800 C 131.780 314.800,131.600 315.065,131.600 315.388 C 131.600 315.711,131.240 316.616,130.801 317.398 L 130.002 318.821 131.040 319.215 C 132.848 319.903,223.146 319.711,223.839 319.019 C 224.609 318.248,224.690 203.250,223.920 202.480 C 222.941 201.501,116.000 201.818,116.000 202.800 M322.000 285.400 L 322.000 350.400 289.600 350.400 L 257.200 350.400 257.200 322.600 L 257.200 294.800 261.320 294.800 C 264.062 294.800,265.620 294.633,265.979 294.300 C 266.416 293.894,266.458 293.912,266.200 294.400 C 265.942 294.888,265.984 294.906,266.421 294.500 C 266.718 294.225,267.284 294.000,267.680 294.000 C 268.076 294.000,268.400 293.820,268.400 293.600 C 268.400 293.380,268.760 293.200,269.200 293.200 C 269.640 293.200,270.000 293.041,270.000 292.847 C 270.000 292.652,270.378 292.394,270.840 292.274 C 271.302 292.153,271.569 291.873,271.432 291.652 C 271.295 291.430,271.412 291.103,271.692 290.925 C 272.411 290.465,273.200 288.951,273.200 288.029 C 273.200 287.599,273.359 287.149,273.553 287.029 C 274.028 286.735,274.047 283.676,273.575 283.384 C 273.369 283.257,273.200 282.973,273.200 282.753 C 273.200 282.533,273.425 282.490,273.700 282.659 C 273.975 282.827,273.687 282.353,273.061 281.605 C 272.434 280.857,271.762 279.825,271.567 279.312 C 271.372 278.799,270.894 278.265,270.506 278.125 C 270.118 277.984,269.287 277.514,268.661 277.080 C 267.655 276.382,266.920 276.299,262.361 276.363 L 257.200 276.435 257.200 248.418 L 257.200 220.400 289.600 220.400 L 322.000 220.400 322.000 285.400 M186.136 227.680 C 185.291 228.090,183.250 229.833,181.600 231.554 C 179.950 233.274,178.105 234.999,177.500 235.387 C 176.895 235.775,176.400 236.245,176.400 236.431 C 176.400 236.877,154.688 258.593,153.396 259.440 C 152.848 259.798,152.400 260.244,152.400 260.430 C 152.400 260.616,150.420 262.755,148.000 265.182 C 144.318 268.876,143.600 269.796,143.600 270.822 C 143.600 271.496,143.454 271.957,143.276 271.847 C 143.098 271.737,142.906 273.301,142.849 275.323 C 142.793 277.346,142.579 279.171,142.373 279.380 C 142.168 279.589,142.000 280.793,142.000 282.056 C 142.000 283.319,141.845 284.448,141.657 284.565 C 141.468 284.682,141.278 286.267,141.234 288.089 C 141.191 289.910,140.986 291.571,140.778 291.780 C 140.226 292.335,140.316 293.993,140.900 294.044 C 143.296 294.256,145.388 293.450,147.200 291.617 C 147.970 290.838,149.275 289.696,150.100 289.080 C 150.925 288.463,151.600 287.798,151.600 287.601 C 151.600 287.101,160.716 278.000,161.217 278.000 C 161.441 278.000,161.744 277.685,161.890 277.300 C 162.282 276.266,165.209 273.559,165.645 273.828 C 165.851 273.955,165.970 273.821,165.910 273.530 C 165.849 273.238,166.025 273.045,166.300 273.100 C 166.575 273.155,166.755 272.975,166.700 272.700 C 166.645 272.425,166.825 272.245,167.100 272.300 C 167.375 272.355,167.555 272.175,167.500 271.900 C 167.445 271.625,167.625 271.445,167.900 271.500 C 168.175 271.555,168.355 271.375,168.300 271.100 C 168.245 270.825,168.438 270.649,168.730 270.710 C 169.021 270.770,169.159 270.658,169.037 270.460 C 168.782 270.047,172.676 265.942,174.901 264.280 C 175.725 263.663,176.400 262.979,176.400 262.758 C 176.400 262.226,184.448 254.221,185.320 253.886 C 185.694 253.743,186.000 253.432,186.000 253.197 C 186.000 252.562,189.251 249.584,189.664 249.840 C 189.860 249.961,189.970 249.821,189.910 249.530 C 189.849 249.238,190.038 249.049,190.330 249.110 C 190.621 249.170,190.760 249.059,190.639 248.863 C 190.347 248.391,191.779 247.112,192.166 247.499 C 192.331 247.665,192.407 247.530,192.333 247.200 C 192.260 246.870,192.425 246.645,192.700 246.700 C 192.975 246.755,193.155 246.575,193.100 246.300 C 193.045 246.025,193.225 245.845,193.500 245.900 C 193.775 245.955,193.955 245.775,193.900 245.500 C 193.845 245.225,194.025 245.045,194.300 245.100 C 194.575 245.155,194.755 245.042,194.700 244.848 C 194.645 244.655,195.358 243.683,196.284 242.689 C 197.920 240.932,200.035 237.684,199.210 238.194 C 198.984 238.333,198.800 238.257,198.800 238.024 C 198.800 237.791,198.980 237.600,199.200 237.600 C 199.420 237.600,199.600 236.783,199.600 235.784 C 199.600 233.050,197.056 228.400,195.560 228.400 C 195.128 228.400,194.676 228.141,194.554 227.825 C 194.433 227.509,194.076 227.349,193.762 227.470 C 193.447 227.591,192.937 227.480,192.628 227.223 C 191.806 226.541,187.917 226.815,186.136 227.680 M187.051 260.164 C 184.414 260.981,166.364 279.346,164.999 282.600 C 164.544 283.686,164.442 286.800,164.862 286.800 C 165.048 286.800,165.200 287.267,165.200 287.838 C 165.200 288.409,165.531 289.354,165.935 289.938 C 166.339 290.522,166.783 291.315,166.922 291.700 C 167.061 292.085,167.496 292.404,167.887 292.409 C 168.279 292.414,169.050 292.770,169.600 293.200 C 170.150 293.630,170.927 293.986,171.326 293.991 C 171.726 293.996,172.424 294.199,172.877 294.441 C 173.510 294.780,173.781 294.757,174.045 294.341 C 174.233 294.044,174.391 293.995,174.394 294.233 C 174.397 294.472,174.662 294.667,174.982 294.667 C 175.303 294.667,175.472 294.517,175.359 294.333 C 175.245 294.150,175.750 294.000,176.480 294.000 C 177.374 294.000,177.971 293.739,178.307 293.200 C 178.582 292.760,179.011 292.400,179.260 292.400 C 179.509 292.400,182.748 289.340,186.458 285.600 C 190.167 281.860,193.382 278.800,193.601 278.800 C 193.821 278.800,194.000 278.608,194.000 278.373 C 194.000 278.138,194.585 277.354,195.300 276.629 C 197.566 274.333,198.596 272.932,198.738 271.952 C 198.814 271.428,199.039 270.940,199.238 270.867 C 200.178 270.520,199.206 265.934,197.860 264.362 C 197.497 263.938,197.200 263.344,197.200 263.041 C 197.200 262.483,196.396 261.858,193.813 260.408 C 192.191 259.496,189.517 259.400,187.051 260.164 " stroke="none" fill="#64a474" fill-rule="evenodd"></path><path id="path2" d="" stroke="none" fill="#c04c50" fill-rule="evenodd"></path><path id="path3" d="" stroke="none" fill="#948850" fill-rule="evenodd"></path><path id="path4" d="M350.267 47.067 C 350.120 47.213,350.000 50.483,350.000 54.333 C 350.000 58.183,350.096 61.238,350.212 61.121 C 350.374 60.959,350.724 46.799,350.567 46.800 C 350.548 46.800,350.413 46.920,350.267 47.067 M173.360 81.400 C 173.360 81.922,173.504 82.259,173.680 82.151 C 173.856 82.042,174.000 81.704,174.000 81.400 C 174.000 81.096,173.856 80.758,173.680 80.649 C 173.504 80.541,173.360 80.878,173.360 81.400 M103.892 88.242 C 103.731 88.402,103.600 88.809,103.600 89.147 C 103.600 89.597,103.718 89.642,104.045 89.315 C 104.290 89.070,104.421 88.663,104.337 88.410 C 104.252 88.157,104.052 88.081,103.892 88.242 M172.600 96.800 C 172.450 97.273,172.417 97.750,172.527 97.860 C 172.637 97.970,172.850 97.673,173.000 97.200 C 173.150 96.727,173.183 96.250,173.073 96.140 C 172.963 96.030,172.750 96.327,172.600 96.800 M83.600 97.200 C 83.600 97.640,83.769 98.000,83.975 98.000 C 84.181 98.000,84.323 97.640,84.290 97.200 C 84.257 96.760,84.088 96.400,83.915 96.400 C 83.742 96.400,83.600 96.760,83.600 97.200 M171.892 111.842 C 171.731 112.002,171.605 112.508,171.612 112.967 C 171.623 113.736,171.656 113.745,172.040 113.085 C 172.488 112.316,172.373 111.360,171.892 111.842 M100.046 114.667 C 100.021 114.924,99.884 115.464,99.741 115.867 C 99.540 116.436,99.594 116.497,99.979 116.142 C 100.252 115.891,100.389 115.351,100.284 114.942 C 100.179 114.534,100.072 114.410,100.046 114.667 M225.206 117.076 C 225.203 117.558,225.380 118.064,225.600 118.200 C 226.109 118.515,226.109 117.588,225.600 116.800 C 225.285 116.312,225.211 116.364,225.206 117.076 M224.893 153.200 C 224.618 153.640,224.531 154.000,224.700 154.000 C 224.869 154.000,225.232 153.640,225.507 153.200 C 225.782 152.760,225.869 152.400,225.700 152.400 C 225.531 152.400,225.168 152.760,224.893 153.200 M250.070 156.778 C 250.581 157.426,251.149 157.966,251.330 157.978 C 251.512 157.990,251.242 157.470,250.730 156.822 C 250.219 156.174,249.651 155.634,249.470 155.622 C 249.288 155.610,249.558 156.130,250.070 156.778 M327.641 159.043 C 327.663 159.240,328.563 160.190,329.641 161.157 C 330.718 162.123,331.582 162.753,331.559 162.557 C 331.537 162.360,330.637 161.410,329.559 160.443 C 328.482 159.477,327.618 158.847,327.641 159.043 M65.029 162.629 C 64.605 162.938,64.336 163.269,64.430 163.363 C 64.524 163.457,64.948 163.281,65.371 162.971 C 65.795 162.662,66.064 162.331,65.970 162.237 C 65.876 162.143,65.452 162.319,65.029 162.629 M389.845 164.988 C 389.480 165.544,389.322 166.000,389.495 166.000 C 389.884 166.000,390.919 164.386,390.682 164.149 C 390.586 164.053,390.210 164.431,389.845 164.988 M89.777 173.891 C 91.085 175.260,92.231 176.302,92.325 176.209 C 92.419 176.115,92.237 175.805,91.921 175.519 C 91.605 175.234,90.459 174.191,89.373 173.202 C 87.649 171.630,87.700 171.717,89.777 173.891 M238.800 171.767 C 238.800 172.188,240.005 173.328,240.221 173.112 C 240.322 173.011,240.044 172.602,239.602 172.202 C 239.161 171.803,238.800 171.607,238.800 171.767 M77.829 176.229 C 77.405 176.538,77.136 176.869,77.230 176.963 C 77.324 177.057,77.748 176.881,78.171 176.571 C 78.595 176.262,78.864 175.931,78.770 175.837 C 78.676 175.743,78.252 175.919,77.829 176.229 M377.600 178.000 C 377.050 178.430,376.797 178.786,377.038 178.791 C 377.279 178.796,377.802 178.440,378.200 178.000 C 379.112 176.992,378.888 176.992,377.600 178.000 M96.400 179.100 C 96.400 179.269,96.760 179.632,97.200 179.907 C 97.640 180.182,98.000 180.269,98.000 180.100 C 98.000 179.931,97.640 179.568,97.200 179.293 C 96.760 179.018,96.400 178.931,96.400 179.100 M373.251 180.939 C 372.797 181.485,372.545 366.278,372.997 366.730 C 373.108 366.842,373.200 325.179,373.200 274.147 C 373.200 202.513,373.309 181.251,373.680 180.880 C 373.944 180.616,374.056 180.400,373.929 180.400 C 373.802 180.400,373.497 180.643,373.251 180.939 M354.267 187.467 C 353.815 187.918,353.948 349.600,354.400 349.600 C 354.665 349.600,354.800 322.267,354.800 268.400 C 354.800 223.740,354.740 187.200,354.667 187.200 C 354.593 187.200,354.413 187.320,354.267 187.467 M340.196 276.400 C 340.196 316.770,340.243 333.285,340.300 313.100 C 340.357 292.915,340.357 259.885,340.300 239.700 C 340.243 219.515,340.196 236.030,340.196 276.400 M205.792 260.400 C 205.792 282.290,205.841 291.245,205.900 280.300 C 205.959 269.355,205.959 251.445,205.900 240.500 C 205.841 229.555,205.792 238.510,205.792 260.400 M180.863 231.765 C 179.509 233.176,178.400 234.452,178.400 234.600 C 178.400 234.873,182.139 231.167,183.149 229.893 C 184.327 228.406,183.211 229.321,180.863 231.765 M191.889 247.063 C 189.079 249.840,186.837 252.171,186.909 252.242 C 186.981 252.314,189.368 250.039,192.214 247.186 C 195.060 244.334,197.301 242.003,197.194 242.006 C 197.087 242.010,194.700 244.285,191.889 247.063 M158.188 254.413 C 156.224 256.386,154.751 258.000,154.914 258.000 C 155.298 258.000,162.096 251.163,161.904 250.970 C 161.824 250.890,160.152 252.439,158.188 254.413 M167.691 271.104 C 164.991 273.860,162.840 276.173,162.911 276.244 C 162.981 276.315,165.368 274.039,168.214 271.186 C 171.060 268.334,173.211 266.021,172.994 266.046 C 172.777 266.072,170.391 268.348,167.691 271.104 M257.200 276.000 C 257.200 276.244,258.881 276.389,261.500 276.372 C 264.275 276.354,265.516 276.222,265.000 276.000 C 263.858 275.509,257.200 275.509,257.200 276.000 M190.602 281.198 C 190.203 281.639,190.007 282.000,190.167 282.000 C 190.588 282.000,191.728 280.795,191.512 280.579 C 191.411 280.478,191.002 280.756,190.602 281.198 M182.996 288.804 C 182.366 289.462,181.982 290.000,182.143 290.000 C 182.556 290.000,184.522 287.988,184.313 287.780 C 184.219 287.686,183.626 288.146,182.996 288.804 M168.400 292.695 C 168.400 293.084,170.014 294.119,170.251 293.882 C 170.347 293.786,169.969 293.410,169.412 293.045 C 168.856 292.680,168.400 292.522,168.400 292.695 M140.631 294.450 C 140.750 294.643,141.096 294.800,141.400 294.800 C 141.704 294.800,142.050 294.643,142.169 294.450 C 142.288 294.257,141.942 294.100,141.400 294.100 C 140.858 294.100,140.512 294.257,140.631 294.450 M141.662 300.595 C 141.927 300.860,205.659 300.874,205.924 300.609 C 206.039 300.494,191.583 300.400,173.800 300.400 C 156.017 300.400,141.555 300.488,141.662 300.595 M144.300 350.300 C 161.515 350.358,189.685 350.358,206.900 350.300 C 224.115 350.242,210.030 350.195,175.600 350.195 C 141.170 350.195,127.085 350.242,144.300 350.300 M273.300 350.300 C 282.265 350.360,296.935 350.360,305.900 350.300 C 314.865 350.240,307.530 350.191,289.600 350.191 C 271.670 350.191,264.335 350.240,273.300 350.300 M343.680 350.298 C 345.594 350.371,348.834 350.371,350.880 350.298 C 352.926 350.226,351.360 350.166,347.400 350.165 C 343.440 350.165,341.766 350.224,343.680 350.298 " stroke="none" fill="#648878" fill-rule="evenodd"></path></g></svg>